<?xml version="1.0" encoding="UTF-8" standalone="no"?>
<!DOCTYPE svg PUBLIC "-//W3C//DTD SVG 1.1//EN" "http://www.w3.org/Graphics/SVG/1.1/DTD/svg11.dtd">
<svg width="100%" height="100%" viewBox="0 0 108 107" version="1.1" xmlns="http://www.w3.org/2000/svg" xmlns:xlink="http://www.w3.org/1999/xlink" xml:space="preserve" xmlns:serif="http://www.serif.com/" style="fill-rule:evenodd;clip-rule:evenodd;stroke-linejoin:round;stroke-miterlimit:2;">
    <g transform="matrix(7.67528,0,0,7.67528,-2070.18,-1648.67)">
        <g transform="matrix(12,0,0,12,269.894,226.554)">
            <path d="M0.535,-0.587C0.596,-0.436 0.725,-0.331 0.889,-0.269C0.896,-0.314 0.928,-0.366 0.979,-0.382L0.979,-0.397C0.825,-0.425 0.641,-0.486 0.551,-0.598C0.584,-0.601 0.596,-0.608 0.599,-0.621L0.421,-0.664C0.381,-0.527 0.203,-0.341 0.02,-0.248L0.025,-0.237C0.242,-0.3 0.443,-0.442 0.535,-0.587ZM0.608,-0.205L0.6,-0.197C0.666,-0.142 0.746,-0.055 0.78,0.023C0.903,0.087 0.965,-0.156 0.608,-0.205ZM0.415,-0.158L0.28,-0.227C0.247,-0.141 0.171,-0.028 0.082,0.041L0.09,0.053C0.212,0.01 0.316,-0.069 0.377,-0.145C0.401,-0.141 0.41,-0.147 0.415,-0.158ZM0.272,-0.719L0.042,-0.719L0.049,-0.69L0.272,-0.69L0.272,-0.58L0.291,-0.58C0.342,-0.58 0.387,-0.597 0.387,-0.606L0.387,-0.69L0.609,-0.69L0.609,-0.586L0.628,-0.586C0.683,-0.586 0.726,-0.601 0.726,-0.611L0.726,-0.69L0.937,-0.69C0.951,-0.69 0.962,-0.695 0.964,-0.706C0.926,-0.744 0.856,-0.8 0.856,-0.8L0.797,-0.719L0.726,-0.719L0.726,-0.805C0.752,-0.809 0.76,-0.819 0.761,-0.832L0.609,-0.845L0.609,-0.719L0.387,-0.719L0.387,-0.805C0.413,-0.809 0.42,-0.819 0.422,-0.832L0.272,-0.845L0.272,-0.719ZM0.674,-0.367L0.615,-0.292L0.565,-0.292L0.565,-0.385C0.586,-0.388 0.594,-0.395 0.596,-0.409L0.448,-0.422L0.448,-0.292L0.208,-0.292L0.216,-0.263L0.448,-0.263L0.448,-0.047C0.448,-0.036 0.443,-0.031 0.428,-0.031C0.409,-0.031 0.316,-0.038 0.316,-0.038L0.316,-0.024C0.363,-0.017 0.382,-0.004 0.396,0.012C0.41,0.029 0.415,0.055 0.417,0.09C0.547,0.079 0.565,0.037 0.565,-0.043L0.565,-0.263L0.752,-0.263C0.766,-0.263 0.776,-0.268 0.779,-0.279C0.739,-0.316 0.674,-0.367 0.674,-0.367Z" style="fill:rgb(255,200,31);fill-rule:nonzero;"/>
        </g>
        <g transform="matrix(6.4754,0,0,6.93579,281.352,226.714)">
            <path d="M0.041,-0.059C0.041,0.019 0.105,0.083 0.183,0.083C0.261,0.083 0.324,0.019 0.324,-0.059C0.324,-0.137 0.261,-0.2 0.183,-0.2C0.105,-0.2 0.041,-0.137 0.041,-0.059ZM0.077,-0.059C0.077,-0.117 0.124,-0.164 0.183,-0.164C0.241,-0.164 0.288,-0.117 0.288,-0.059C0.288,-0.001 0.241,0.047 0.183,0.047C0.124,0.047 0.077,-0.001 0.077,-0.059Z" style="fill:white;fill-rule:nonzero;"/>
        </g>
    </g>
</svg>
