<?xml version="1.0" encoding="UTF-8" standalone="no"?>
<!DOCTYPE svg PUBLIC "-//W3C//DTD SVG 1.1//EN" "http://www.w3.org/Graphics/SVG/1.1/DTD/svg11.dtd">
<svg width="100%" height="100%" version="1.1" xmlns="http://www.w3.org/2000/svg" xmlns:xlink="http://www.w3.org/1999/xlink" xml:space="preserve" xmlns:serif="http://www.serif.com/">
    <symbol id="mastodon-svg-logo-full" viewBox="0 0 268 113">
        <g transform="matrix(7.67528,0,0,7.67528,-2070.18,-1654.67)">
            <g transform="matrix(12,0,0,12,269.894,226.554)">
                <path d="M0.535,-0.587C0.596,-0.436 0.725,-0.331 0.889,-0.269C0.896,-0.314 0.928,-0.366 0.979,-0.382L0.979,-0.397C0.825,-0.425 0.641,-0.486 0.551,-0.598C0.584,-0.601 0.596,-0.608 0.599,-0.621L0.421,-0.664C0.381,-0.527 0.203,-0.341 0.02,-0.248L0.025,-0.237C0.242,-0.3 0.443,-0.442 0.535,-0.587ZM0.608,-0.205L0.6,-0.197C0.666,-0.142 0.746,-0.055 0.78,0.023C0.903,0.087 0.965,-0.156 0.608,-0.205ZM0.415,-0.158L0.28,-0.227C0.247,-0.141 0.171,-0.028 0.082,0.041L0.09,0.053C0.212,0.01 0.316,-0.069 0.377,-0.145C0.401,-0.141 0.41,-0.147 0.415,-0.158ZM0.272,-0.719L0.042,-0.719L0.049,-0.69L0.272,-0.69L0.272,-0.58L0.291,-0.58C0.342,-0.58 0.387,-0.597 0.387,-0.606L0.387,-0.69L0.609,-0.69L0.609,-0.586L0.628,-0.586C0.683,-0.586 0.726,-0.601 0.726,-0.611L0.726,-0.69L0.937,-0.69C0.951,-0.69 0.962,-0.695 0.964,-0.706C0.926,-0.744 0.856,-0.8 0.856,-0.8L0.797,-0.719L0.726,-0.719L0.726,-0.805C0.752,-0.809 0.76,-0.819 0.761,-0.832L0.609,-0.845L0.609,-0.719L0.387,-0.719L0.387,-0.805C0.413,-0.809 0.42,-0.819 0.422,-0.832L0.272,-0.845L0.272,-0.719ZM0.674,-0.367L0.615,-0.292L0.565,-0.292L0.565,-0.385C0.586,-0.388 0.594,-0.395 0.596,-0.409L0.448,-0.422L0.448,-0.292L0.208,-0.292L0.216,-0.263L0.448,-0.263L0.448,-0.047C0.448,-0.036 0.443,-0.031 0.428,-0.031C0.409,-0.031 0.316,-0.038 0.316,-0.038L0.316,-0.024C0.363,-0.017 0.382,-0.004 0.396,0.012C0.41,0.029 0.415,0.055 0.417,0.09C0.547,0.079 0.565,0.037 0.565,-0.043L0.565,-0.263L0.752,-0.263C0.766,-0.263 0.776,-0.268 0.779,-0.279C0.739,-0.316 0.674,-0.367 0.674,-0.367Z" style="fill:rgb(255,200,31);fill-rule:nonzero;"/>
            </g>
            <g transform="matrix(12,0,0,12,281.894,226.554)">
                <path d="M0.719,-0.28L0.667,-0.204L0.412,-0.204L0.42,-0.175L0.787,-0.175C0.801,-0.175 0.81,-0.18 0.813,-0.191C0.779,-0.227 0.719,-0.28 0.719,-0.28ZM0.643,-0.673L0.503,-0.7C0.501,-0.628 0.484,-0.463 0.469,-0.371C0.456,-0.364 0.444,-0.356 0.435,-0.349L0.538,-0.287L0.578,-0.336L0.839,-0.336C0.83,-0.161 0.814,-0.054 0.789,-0.033C0.78,-0.026 0.772,-0.023 0.755,-0.023C0.734,-0.023 0.663,-0.028 0.619,-0.031L0.618,-0.017C0.66,-0.01 0.698,0.004 0.715,0.02C0.733,0.035 0.737,0.061 0.736,0.09C0.794,0.09 0.832,0.079 0.862,0.054C0.91,0.014 0.933,-0.101 0.942,-0.319C0.963,-0.322 0.976,-0.328 0.983,-0.336L0.884,-0.419L0.829,-0.364L0.823,-0.364C0.838,-0.481 0.852,-0.65 0.858,-0.742C0.878,-0.745 0.893,-0.752 0.9,-0.76L0.791,-0.843L0.747,-0.789L0.429,-0.789L0.438,-0.76L0.755,-0.76C0.748,-0.652 0.735,-0.492 0.718,-0.364L0.574,-0.364C0.587,-0.447 0.6,-0.575 0.606,-0.649C0.631,-0.649 0.64,-0.661 0.643,-0.673ZM0.214,-0.092L0.214,-0.416L0.301,-0.416L0.301,-0.092L0.214,-0.092ZM0.352,-0.821L0.293,-0.747L0.031,-0.747L0.039,-0.718L0.163,-0.718C0.14,-0.543 0.094,-0.345 0.023,-0.205L0.037,-0.196C0.065,-0.228 0.091,-0.261 0.115,-0.297L0.115,0.046L0.133,0.046C0.183,0.046 0.214,0.022 0.214,0.015L0.214,-0.063L0.301,-0.063L0.301,-0.002L0.318,-0.002C0.352,-0.002 0.402,-0.022 0.403,-0.029L0.403,-0.401C0.421,-0.405 0.435,-0.412 0.441,-0.42L0.34,-0.498L0.291,-0.445L0.227,-0.445L0.202,-0.455C0.238,-0.536 0.264,-0.624 0.281,-0.718L0.431,-0.718C0.445,-0.718 0.455,-0.723 0.458,-0.734C0.418,-0.77 0.352,-0.821 0.352,-0.821Z" style="fill:rgb(255,200,31);fill-rule:nonzero;"/>
            </g>
            <g transform="matrix(12,0,0,12,293.894,226.554)">
                <path d="M0.041,-0.059C0.041,0.019 0.105,0.083 0.183,0.083C0.261,0.083 0.324,0.019 0.324,-0.059C0.324,-0.137 0.261,-0.2 0.183,-0.2C0.105,-0.2 0.041,-0.137 0.041,-0.059ZM0.077,-0.059C0.077,-0.117 0.124,-0.164 0.183,-0.164C0.241,-0.164 0.288,-0.117 0.288,-0.059C0.288,-0.001 0.241,0.047 0.183,0.047C0.124,0.047 0.077,-0.001 0.077,-0.059Z" style="fill:white;fill-rule:nonzero;"/>
            </g>
        </g>
    </symbol>
</svg>
